<svg xmlns="http://www.w3.org/2000/svg" viewBox="0 0 512 512">
  <rect width="512" height="512" rx="100" fill="#2D1218"/>
  <rect x="120" y="160" width="272" height="220" rx="8" fill="#4A1528"/>
  <rect x="104" y="120" width="80" height="260" rx="6" fill="#4A1528"/>
  <ellipse cx="144" cy="110" rx="48" ry="58" fill="#3A1020"/>
  <ellipse cx="144" cy="78" rx="28" ry="38" fill="#2D1218"/>
  <line x1="144" y1="40" x2="144" y2="16" stroke="#C9922A" stroke-width="6"/>
  <line x1="124" y1="28" x2="164" y2="28" stroke="#C9922A" stroke-width="6"/>
  <rect x="328" y="136" width="72" height="244" rx="6" fill="#4A1528"/>
  <ellipse cx="364" cy="126" rx="40" ry="48" fill="#3A1020"/>
  <ellipse cx="364" cy="98" rx="22" ry="30" fill="#2D1218"/>
  <line x1="364" y1="68" x2="364" y2="50" stroke="#C9922A" stroke-width="5"/>
  <line x1="348" y1="59" x2="380" y2="59" stroke="#C9922A" stroke-width="5"/>
  <ellipse cx="256" cy="148" rx="58" ry="68" fill="#3A1020"/>
  <ellipse cx="256" cy="110" rx="34" ry="44" fill="#2D1218"/>
  <line x1="256" y1="66" x2="256" y2="42" stroke="#C9922A" stroke-width="7"/>
  <line x1="232" y1="54" x2="280" y2="54" stroke="#C9922A" stroke-width="7"/>
  <line x1="236" y1="66" x2="276" y2="66" stroke="#C9922A" stroke-width="4"/>
  <rect x="238" y="310" width="22" height="32" rx="11" fill="#C9922A" fill-opacity="0.5"/>
  <rect x="268" y="310" width="22" height="32" rx="11" fill="#C9922A" fill-opacity="0.4"/>
  <circle cx="256" cy="460" r="2" fill="#C9922A" fill-opacity="0.5"/>
</svg>
